<svg width="109" height="22" viewBox="0 0 109 22" fill="none" xmlns="http://www.w3.org/2000/svg">
<g clip-path="url(#clip0_1078_1166)">
<path d="M11.839 3.38763C11.8994 3.12115 11.9132 2.85395 11.8858 2.59457C11.7781 1.57622 11.0348 0.678378 9.97916 0.417087C8.65461 0.0892454 7.33977 0.887668 7.0424 2.20041C6.74503 3.51316 7.57773 4.84312 8.90229 5.17096C9.13502 5.22856 9.36745 5.2514 9.59411 5.24278C10.6575 5.20235 11.5939 4.46972 11.839 3.38763Z" fill="#E0EEE6"/>
<path d="M17.5097 8.25062C17.8071 6.93787 16.9744 5.60791 15.6498 5.28007C15.2654 5.18492 14.8818 5.18464 14.5236 5.26427C13.6477 5.459 12.9241 6.13165 12.713 7.0634C12.6615 7.29072 12.6439 7.51855 12.6569 7.74161C12.7188 8.80669 13.4777 9.76288 14.5729 10.0339C15.8975 10.3618 17.2123 9.56337 17.5097 8.25062Z" fill="#E0EEE6"/>
<path fill-rule="evenodd" clip-rule="evenodd" d="M11.839 3.38763C11.8994 3.12115 11.9132 2.85395 11.8858 2.59457C12.0259 3.28154 12.3656 4.25117 12.8791 4.68976C13.3177 5.06437 13.9227 5.29554 14.5236 5.26427C13.6477 5.459 12.9241 6.13165 12.713 7.0634C12.6615 7.29072 12.6439 7.51855 12.6569 7.74161C12.5987 7.21338 12.1256 6.17883 11.7095 5.85934C11.2709 5.52253 9.95582 5.24995 9.59411 5.24278C10.6575 5.20235 11.5939 4.46972 11.839 3.38763Z" fill="#E0EEE6"/>
<path d="M12.7355 8.05325C12.7355 6.68063 13.8482 5.5679 15.2209 5.5679C16.5935 5.5679 17.7062 6.68063 17.7062 8.05325V13.6087C17.7062 14.9814 16.5935 16.0941 15.2209 16.0941C13.8482 16.0941 12.7355 14.9814 12.7355 13.6087V8.05325Z" fill="#E0EEE6"/>
<path d="M5.86717 18.5733C5.80681 18.8398 5.79301 19.107 5.82044 19.3664C5.92815 20.3847 6.67138 21.2826 7.72706 21.5439C9.05161 21.8717 10.3664 21.0733 10.6638 19.7605C10.9612 18.4478 10.1285 17.1178 8.80393 16.79C8.5712 16.7324 8.33877 16.7095 8.11211 16.7182C7.04874 16.7586 6.1123 17.4912 5.86717 18.5733Z" fill="#E0EEE6"/>
<path d="M0.196533 13.7103C-0.100838 15.0231 0.731865 16.353 2.05642 16.6809C2.44084 16.776 2.82445 16.7763 3.1826 16.6967C4.05848 16.5019 4.78211 15.8293 4.99318 14.8975C5.04467 14.6702 5.06228 14.4424 5.04932 14.2193C4.98742 13.1542 4.22848 12.1981 3.13329 11.927C1.80874 11.5991 0.493905 12.3976 0.196533 13.7103Z" fill="#E0EEE6"/>
<path fill-rule="evenodd" clip-rule="evenodd" d="M5.86717 18.5733C5.80681 18.8398 5.79301 19.107 5.82044 19.3664C5.6803 18.6794 5.3406 17.7098 4.8271 17.2712C4.38851 16.8966 3.78353 16.6654 3.1826 16.6967C4.05848 16.5019 4.78211 15.8293 4.99318 14.8975C5.04467 14.6702 5.06228 14.4424 5.04932 14.2193C5.1075 14.7476 5.58065 15.7821 5.99668 16.1016C6.43527 16.4384 7.7504 16.711 8.11211 16.7182C7.04874 16.7586 6.1123 17.4912 5.86717 18.5733Z" fill="#E0EEE6"/>
<path d="M4.97071 13.9077C4.97071 15.2803 3.85798 16.393 2.48535 16.393C1.11273 16.393 -1.19998e-07 15.2803 0 13.9077L4.85678e-07 8.35219C6.05676e-07 6.97956 1.11273 5.86683 2.48535 5.86683C3.85798 5.86683 4.97071 6.97956 4.97071 8.35219L4.97071 13.9077Z" fill="#E0EEE6"/>
<path d="M30.7574 3.1657C35.2034 3.1657 38.6448 6.28646 38.6448 10.9676C38.6448 15.6487 35.2034 18.7695 30.7574 18.7695C26.3114 18.7695 22.87 15.6487 22.87 10.9676C22.87 6.28646 26.3114 3.1657 30.7574 3.1657ZM30.7574 6.58571C28.3634 6.58571 26.5251 8.27434 26.5251 10.9676C26.5251 13.6609 28.3634 15.3495 30.7574 15.3495C33.1514 15.3495 34.9896 13.6609 34.9896 10.9676C34.9896 8.27434 33.1514 6.58571 30.7574 6.58571Z" fill="#E0EEE6"/>
<path d="M43.812 3.1657C45.2442 3.1657 46.89 3.48633 48.6642 4.25583L47.2748 7.18422C45.9068 6.54296 44.8808 6.24371 43.8975 6.24371C42.8502 6.24371 42.5295 6.60709 42.5295 7.12009C42.5295 7.56897 42.8074 7.86822 43.6624 8.38122L46.1419 9.9416C47.9374 11.0317 48.9848 12.2287 48.9848 14.3235C48.9848 17.2091 47.0183 18.7695 43.5342 18.7695C41.5249 18.7695 39.6439 18.2565 37.9553 17.2732L39.4515 14.3021C40.8836 15.1785 42.2944 15.6701 43.6624 15.6701C44.8594 15.6701 45.5007 15.264 45.5007 14.4731C45.5007 13.7891 44.9235 13.383 44.0899 12.87L41.8028 11.4379C39.8576 10.2836 39.0454 8.85147 39.0454 7.16284C39.0454 4.72608 40.6485 3.1657 43.812 3.1657Z" fill="#E0EEE6"/>
<path d="M61.2529 3.48633H63.7538L67.5586 18.4489H64.1172L62.0865 9.83472H62.0438L59.265 16.3114H56.8924L54.135 9.83472H54.0923L52.0616 18.4489H48.5989L52.425 3.48633H54.9259L58.068 11.2241H58.1108L61.2529 3.48633Z" fill="#E0EEE6"/>
<path d="M74.8251 3.1657C79.2711 3.1657 82.7125 6.28646 82.7125 10.9676C82.7125 15.6487 79.2711 18.7695 74.8251 18.7695C70.3791 18.7695 66.9377 15.6487 66.9377 10.9676C66.9377 6.28646 70.3791 3.1657 74.8251 3.1657ZM74.8251 6.58571C72.4311 6.58571 70.5928 8.27434 70.5928 10.9676C70.5928 13.6609 72.4311 15.3495 74.8251 15.3495C77.2191 15.3495 79.0573 13.6609 79.0573 10.9676C79.0573 8.27434 77.2191 6.58571 74.8251 6.58571Z" fill="#E0EEE6"/>
<path d="M87.8797 3.1657C89.3119 3.1657 90.9577 3.48633 92.7319 4.25583L91.3425 7.18422C89.9745 6.54296 88.9485 6.24371 87.9652 6.24371C86.9178 6.24371 86.5972 6.60709 86.5972 7.12009C86.5972 7.56897 86.8751 7.86822 87.7301 8.38122L90.2096 9.9416C92.0051 11.0317 93.0525 12.2287 93.0525 14.3235C93.0525 17.2091 91.086 18.7695 87.6019 18.7695C85.5926 18.7695 83.7116 18.2565 82.023 17.2732L83.5192 14.3021C84.9513 15.1785 86.3621 15.6701 87.7301 15.6701C88.9271 15.6701 89.5684 15.264 89.5684 14.4731C89.5684 13.7891 88.9912 13.383 88.1576 12.87L85.8705 11.4379C83.9253 10.2836 83.1131 8.85147 83.1131 7.16284C83.1131 4.72608 84.7162 3.1657 87.8797 3.1657Z" fill="#E0EEE6"/>
<path d="M93.9705 3.48633H97.2836V18.4489H93.9705V3.48633Z" fill="#E0EEE6"/>
<path d="M103.725 3.1657C105.157 3.1657 106.803 3.48633 108.577 4.25583L107.188 7.18422C105.82 6.54296 104.794 6.24371 103.81 6.24371C102.763 6.24371 102.442 6.60709 102.442 7.12009C102.442 7.56897 102.72 7.86822 103.575 8.38122L106.055 9.9416C107.85 11.0317 108.898 12.2287 108.898 14.3235C108.898 17.2091 106.931 18.7695 103.447 18.7695C101.438 18.7695 99.5567 18.2565 97.8681 17.2732L99.3643 14.3021C100.796 15.1785 102.207 15.6701 103.575 15.6701C104.772 15.6701 105.413 15.264 105.413 14.4731C105.413 13.7891 104.836 13.383 104.003 12.87L101.716 11.4379C99.7704 10.2836 98.9582 8.85147 98.9582 7.16284C98.9582 4.72608 100.561 3.1657 103.725 3.1657Z" fill="#E0EEE6"/>
</g>
<defs>
<clipPath id="clip0_1078_1166">
<rect width="109" height="21.3129" fill="white" transform="translate(0 0.343506)"/>
</clipPath>
</defs>
</svg>
